Coordinates
version=1
nRows=6
nColumns=34
inDegrees=yes

Units are S.I. units (second, meters, Newtons, ...)
If the header above contains a line with 'inDegrees', this indicates whether rotational values are in degrees (yes) or radians (no).

endheader
time	pelvis_tilt	pelvis_list	pelvis_rotation	pelvis_tx	pelvis_ty	pelvis_tz	hip_flexion_r	hip_adduction_r	hip_rotation_r	knee_angle_r	ankle_angle_r	subtalar_angle_r	mtp_angle_r	hip_flexion_l	hip_adduction_l	hip_rotation_l	knee_angle_l	ankle_angle_l	subtalar_angle_l	mtp_angle_l	lumbar_extension	lumbar_bending	lumbar_rotation	arm_flex_r	arm_add_r	arm_rot_r	elbow_flex_r	pro_sup_r	arm_flex_l	arm_add_l	arm_rot_l	elbow_flex_l	pro_sup_l
      4.06666670	    -10.32529554	     13.61944090	    -62.84761201	     -0.03502787	      0.73738649	     -0.32819080	     75.13884653	    -12.84452856	      5.96448603	     94.03821032	     26.07229169	     -9.38196921	      0.00000000	     76.38352995	    -10.14959192	      1.84433939	     92.16164602	     25.39520285	     -9.11084627	      0.00000000	    -26.82430294	      0.49862938	     -1.51664481	     71.55263900	    -17.34716434	     24.22207801	     92.54121059	    119.74817918	     68.39211811	    -13.69339857	     22.01870227	     91.76230688	    119.74817918
      4.08333330	    -10.03473436	     13.40073390	    -62.85967723	     -0.03337653	      0.74380019	     -0.32690684	     73.97965955	    -12.98014228	      5.84520863	     92.99403382	     25.91975911	     -9.74010832	      0.00000000	     75.16158619	     -9.95300141	      1.49845929	     91.14053649	     25.20537369	     -9.27736495	      0.00000000	    -26.79964797	      0.43882112	     -1.57239623	     71.37850754	    -17.84599038	     25.19786643	     92.49596011	    119.74817918	     67.87982575	    -14.06063417	     22.66132090	     92.04111361	    119.74817918
      4.10000000	    -10.08613193	     13.59571002	    -62.85561110	     -0.03265743	      0.74914520	     -0.32615849	     73.46482092	    -12.95790586	      5.65899027	     91.95208295	     25.78325480	     -9.65318659	      0.00000000	     74.64734987	     -9.87520736	      1.32633986	     90.12896367	     25.05083432	     -9.16195157	      0.00000000	    -26.17984475	      0.41443827	     -1.47584787	     70.98126922	    -18.01401285	     25.30975917	     92.30907430	    119.74817918	     67.37275393	    -14.18495207	     22.81220487	     91.97244534	    119.74817918
      4.11666670	     -9.73734559	     13.14831648	    -62.83167127	     -0.03118672	      0.75587066	     -0.32452351	     72.04671514	    -13.14129997	      5.41204059	     90.96438333	     25.43880645	    -10.10964875	      0.00000000	     73.21184544	     -9.77567776	      0.99810872	     89.11633121	     24.63795633	     -9.32975308	      0.00000000	    -26.33678220	      0.38466577	     -1.54802224	     70.52592291	    -17.85187838	     25.12027529	     91.75292028	    119.74817918	     66.77251105	    -14.08455641	     22.61577313	     91.91642412	    119.74817918
      4.13333330	     -9.80897505	     13.36554104	    -62.83375315	     -0.03039679	      0.76105733	     -0.32376599	     71.57941832	    -13.12769421	      5.22371238	     89.94471114	     25.31949073	    -10.02381625	      0.00000000	     72.72342752	     -9.69794658	      0.82915259	     88.11581465	     24.50562784	     -9.21842969	      0.00000000	    -25.69355563	      0.38667786	     -1.42081000	     70.23685681	    -17.97603705	     25.15508275	     91.56111586	    119.74817918	     66.46992697	    -14.20733437	     22.69303327	     91.82196912	    119.74817918
      4.15000000	     -9.47518735	     12.82340093	    -62.81604361	     -0.02921198	      0.76812566	     -0.32209946	     70.03087355	    -13.24595562	      4.89165679	     88.88601323	     24.94126440	    -10.45271622	      0.00000000	     71.18678713	     -9.63601551	      0.55898857	     87.03293888	     24.11761957	     -9.39645269	      0.00000000	    -25.97253278	      0.35367527	     -1.40425484	     69.86856284	    -17.72907143	     24.78176410	     90.91498125	    119.74817918	     66.27081293	    -14.07839126	     22.82476467	     91.23655157	    119.74817918
